<svg width="1200" height="300" viewBox="0 0 1200 300" fill="none" xmlns="http://www.w3.org/2000/svg">
<path d="M112.75 41.75C90.5833 41.75 80.1667 48.4167 81.5 61.75L86.5 113C86.6667 114.5 86.75 116.667 86.75 119.5C86.75 127.5 84.8333 133.667 81 138C77.1667 142.167 71.25 145 63.25 146.5C71.4167 148 77.3333 150.833 81 155C84.8333 159 86.75 165.083 86.75 173.25C86.75 176.083 86.6667 178.333 86.5 180L81.5 231.25C80.8333 238.583 83.3333 243.75 89 246.75C94.6667 249.75 102.583 251.25 112.75 251.25V268C97.75 268 85.5 265.417 76 260.25C66.5 255.083 61.75 246.333 61.75 234C61.75 231.833 61.8333 230.167 62 229L67.25 181.5C67.4167 180.333 67.5 178.667 67.5 176.5C67.5 169.167 64.75 163.75 59.25 160.25C53.75 156.75 43.75 155 29.25 155V138C43.75 138 53.75 136.333 59.25 133C64.75 129.5 67.5 124.083 67.5 116.75C67.5 114.75 67.4167 113.167 67.25 112L62 64C61.8333 62.8333 61.75 61.1667 61.75 59C61.75 46.6667 66.5 37.9167 76 32.75C85.5 27.5833 97.75 25 112.75 25V41.75ZM191.652 175.5C192.152 190 195.902 200.917 202.902 208.25C210.069 215.583 219.069 219.25 229.902 219.25C236.402 219.25 242.319 218.333 247.652 216.5C253.152 214.5 258.986 211.5 265.152 207.5L274.902 221.5C268.736 226.333 261.652 230.083 253.652 232.75C245.819 235.417 237.902 236.75 229.902 236.75C210.902 236.75 196.069 230.583 185.402 218.25C174.902 205.75 169.652 189.083 169.652 168.25C169.652 155.083 171.986 143.333 176.652 133C181.319 122.5 187.986 114.333 196.652 108.5C205.319 102.5 215.402 99.5 226.902 99.5C243.569 99.5 256.652 105.333 266.152 117C275.819 128.5 280.652 144.25 280.652 164.25C280.652 168.083 280.486 171.833 280.152 175.5H191.652ZM227.152 116.75C216.986 116.75 208.736 120.417 202.402 127.75C196.069 134.917 192.486 145.5 191.652 159.5H260.152C259.986 145.667 256.986 135.083 251.152 127.75C245.319 120.417 237.319 116.75 227.152 116.75ZM324.805 102.25H342.805L344.555 120.75C349.721 114.083 356.221 108.917 364.055 105.25C372.055 101.417 380.055 99.5 388.055 99.5C412.721 99.5 425.055 112.5 425.055 138.5V234H404.055V154C404.055 144.167 403.471 136.667 402.305 131.5C401.305 126.333 399.221 122.5 396.055 120C392.888 117.5 388.055 116.25 381.555 116.25C374.388 116.25 367.638 118.417 361.305 122.75C354.971 127.083 349.805 132.25 345.805 138.25V234H324.805V102.25ZM534.457 218.75C545.957 218.75 557.374 214.917 568.707 207.25L578.707 221C573.207 225.833 566.374 229.667 558.207 232.5C550.04 235.333 542.124 236.75 534.457 236.75C514.957 236.75 499.707 230.667 488.707 218.5C477.874 206.167 472.457 189.583 472.457 168.75C472.457 155.583 474.874 143.75 479.707 133.25C484.707 122.75 491.874 114.5 501.207 108.5C510.54 102.5 521.624 99.5 534.457 99.5C551.457 99.5 566.124 104.667 578.457 115L568.207 128.75C556.707 121.083 545.374 117.25 534.207 117.25C522.374 117.25 512.874 121.667 505.707 130.5C498.707 139.167 495.207 151.917 495.207 168.75C495.207 185.583 498.707 198.167 505.707 206.5C512.874 214.667 522.457 218.75 534.457 218.75ZM874.512 49.25V234H856.012L854.012 216.75C849.178 223.417 843.595 228.417 837.262 231.75C830.928 235.083 824.095 236.75 816.762 236.75C800.095 236.75 787.512 230.667 779.012 218.5C770.678 206.333 766.512 189.583 766.512 168.25C766.512 155.083 768.595 143.333 772.762 133C776.928 122.5 782.845 114.333 790.512 108.5C798.345 102.5 807.512 99.5 818.012 99.5C832.512 99.5 844.345 104.75 853.512 115.25V46.75L874.512 49.25ZM823.512 116.5C812.512 116.5 804.012 120.833 798.012 129.5C792.178 138.167 789.262 151.083 789.262 168.25C789.262 185.25 791.928 198.167 797.262 207C802.762 215.667 810.678 220 821.012 220C833.512 220 844.345 213 853.512 199V133.5C849.845 128 845.428 123.833 840.262 121C835.095 118 829.512 116.5 823.512 116.5ZM941.164 175.5C941.664 190 945.414 200.917 952.414 208.25C959.581 215.583 968.581 219.25 979.414 219.25C985.914 219.25 991.831 218.333 997.164 216.5C1002.66 214.5 1008.5 211.5 1014.66 207.5L1024.41 221.5C1018.25 226.333 1011.16 230.083 1003.16 232.75C995.331 235.417 987.414 236.75 979.414 236.75C960.414 236.75 945.581 230.583 934.914 218.25C924.414 205.75 919.164 189.083 919.164 168.25C919.164 155.083 921.497 143.333 926.164 133C930.831 122.5 937.497 114.333 946.164 108.5C954.831 102.5 964.914 99.5 976.414 99.5C993.081 99.5 1006.16 105.333 1015.66 117C1025.33 128.5 1030.16 144.25 1030.16 164.25C1030.16 168.083 1030 171.833 1029.66 175.5H941.164ZM976.664 116.75C966.497 116.75 958.247 120.417 951.914 127.75C945.581 134.917 941.997 145.5 941.164 159.5H1009.66C1009.5 145.667 1006.5 135.083 1000.66 127.75C994.831 120.417 986.831 116.75 976.664 116.75ZM1086.57 25C1101.57 25 1113.82 27.5833 1123.32 32.75C1132.82 37.9167 1137.57 46.6667 1137.57 59C1137.57 61.1667 1137.48 62.8333 1137.32 64L1132.07 112C1131.9 112.833 1131.82 114.083 1131.82 115.75C1131.82 123.25 1134.73 128.833 1140.57 132.5C1146.57 136.167 1156.4 138 1170.07 138V155C1156.23 155 1146.4 156.833 1140.57 160.5C1134.73 164.167 1131.82 169.833 1131.82 177.5C1131.82 179.167 1131.9 180.5 1132.07 181.5L1137.32 229C1137.48 230.167 1137.57 231.833 1137.57 234C1137.57 246.333 1132.82 255.083 1123.32 260.25C1113.82 265.417 1101.57 268 1086.57 268V251.25C1096.73 251.25 1104.65 249.75 1110.32 246.75C1115.98 243.75 1118.48 238.583 1117.82 231.25L1112.82 180C1112.48 176.667 1112.32 174.417 1112.32 173.25C1112.32 164.917 1114.4 158.75 1118.57 154.75C1122.73 150.75 1129.48 148.083 1138.82 146.75C1129.82 145.083 1123.15 142.167 1118.82 138C1114.65 133.667 1112.57 127.417 1112.57 119.25C1112.57 116.583 1112.65 114.5 1112.82 113L1117.82 61.75C1119.15 48.4167 1108.73 41.75 1086.57 41.75V25Z" fill="black"/>
<path d="M636.816 95.3471C636.007 95.5361 634.424 95.9896 633.32 96.4431C632.216 96.8588 630.229 97.9169 628.904 98.7861C627.58 99.6553 625.776 101.167 624.93 102.112C623.863 103.245 618.048 113.222 607.781 131.437C595.122 153.923 592.141 159.478 591.626 161.594C591.258 163.068 591 165.562 591 167.528C591 169.379 591.258 171.987 591.552 173.31C591.994 175.161 595.342 181.397 607.707 203.429C620.735 226.632 623.642 231.545 625.298 233.284C626.439 234.417 628.316 235.967 629.493 236.685C630.708 237.403 632.732 238.423 634.056 238.952L636.448 239.897C689.367 240.086 699.34 240.01 701.033 239.708C702.358 239.443 704.566 238.725 706.001 238.045C707.399 237.365 709.571 236.005 710.785 235.06C711.999 234.115 713.435 232.755 713.95 232.074C714.502 231.394 721.862 218.507 730.326 203.429C742.396 181.964 745.856 175.501 746.371 173.574C746.702 172.214 746.996 169.644 746.996 167.83C747.033 165.978 746.776 163.371 746.481 161.972C746.003 159.743 743.795 155.623 730.436 131.815C721.899 116.623 714.502 103.661 713.95 102.981C713.435 102.301 711.999 100.94 710.785 99.9954C709.571 99.0506 707.399 97.6902 706.001 97.0099C704.566 96.3297 702.431 95.6117 701.217 95.3849C699.708 95.0826 689.294 94.9692 668.649 95.007C651.941 95.0448 637.626 95.196 636.816 95.3471Z" fill="url(#paint0_linear_24_8)"/>
<path d="M645.86 157.76L626.36 169.16L645.86 180.32L641.54 187.1L618.2 172.58V165.8L641.66 151.22L645.86 157.76ZM651.717 191.3L676.917 138.98L684.237 142.4L659.097 194.72L651.717 191.3ZM717.813 165.74V172.58L694.413 187.1L690.153 180.62L709.593 169.16L690.153 158.06L694.353 151.22L717.813 165.74Z" fill="black"/>
<defs>
<linearGradient id="paint0_linear_24_8" x1="669" y1="95" x2="669" y2="240" gradientUnits="userSpaceOnUse">
<stop stop-color="#2AA6C0"/>
<stop offset="1" stop-color="#5977B5"/>
</linearGradient>
</defs>
</svg>
