<svg width="203" height="336" viewBox="0 0 203 336" fill="none" xmlns="http://www.w3.org/2000/svg">
<path fill-rule="evenodd" clip-rule="evenodd" d="M29.9084 17.0717L0.470998 34.0864V122.864C0.470998 172.588 0.831777 211.64 1.29053 211.64C1.74175 211.64 7.14598 208.718 13.301 205.145L24.4919 198.649L24.7575 123.524L25.0241 48.3981L36.1651 42.0472C42.2918 38.5546 47.5792 35.6963 47.9136 35.6963C48.249 35.6963 48.4139 75.3221 48.282 123.754L48.0418 211.811L38.1508 217.536C32.7108 220.685 21.9014 226.91 14.1299 231.37L0 239.48V246.931V254.383L28.7309 270.888C44.5328 279.965 60.8529 289.383 64.9977 291.816L72.5336 296.24L72.7804 261.118L73.0272 225.996L90.6784 215.829C100.387 210.237 112.78 203.039 118.22 199.832C123.66 196.625 128.429 194.184 128.818 194.408C129.207 194.632 129.524 225.027 129.524 261.951V329.087L135.712 332.544L141.901 336L159.498 325.87C169.177 320.297 182.708 312.533 189.566 308.616L202.037 301.493L202.048 212.26L202.058 123.027L196.171 126.423C192.933 128.292 187.431 131.4 183.945 133.33L177.608 136.841L177.351 212.041L177.095 287.241L166.262 293.608C160.304 297.11 155.112 299.999 154.723 300.029C154.334 300.058 154.031 260.39 154.049 211.875L154.081 123.668L178.541 109.678L203 95.6878L202.979 88.5075L202.959 81.3286L185.317 71.1926C175.614 65.6179 159.234 56.196 148.917 50.2553C138.6 44.3137 130.025 39.5858 129.863 39.7486C129.7 39.9123 129.538 55.7086 129.502 74.8526L129.438 109.66L101.457 125.723L73.4756 141.787L73.2335 74.2222L72.9924 6.65812L67.4591 3.30014C64.4155 1.45415 61.3446 -0.0314826 60.6353 0.000507091C59.926 0.0315559 46.0994 7.71379 29.9084 17.0717ZM164.177 87.8959C165.133 88.7596 164.34 89.5716 160.418 91.746C157.685 93.2608 155.126 94.6425 154.732 94.8146C154.338 94.9878 154.016 92.111 154.016 88.4238V81.72L158.491 84.2613C160.951 85.6585 163.511 87.2947 164.177 87.8959ZM129.524 151.673V165.095L125.05 167.533C122.589 168.875 109.872 176.152 96.79 183.706L73.0046 197.441V184.073V170.706L91.609 159.98C101.841 154.081 114.444 146.779 119.615 143.753C124.785 140.727 129.13 138.252 129.27 138.252C129.409 138.252 129.524 144.291 129.524 151.673ZM48.5128 246.923C48.5128 250.286 48.2942 253.038 48.0276 253.038C47.3616 253.038 37.2088 247.288 37.2088 246.911C37.2088 246.462 46.982 240.852 47.8063 240.828C48.1953 240.817 48.5128 243.559 48.5128 246.923Z" fill="#9E55F8"/>
</svg>
