<svg width="898" height="1488" viewBox="0 0 898 1488" fill="none" xmlns="http://www.w3.org/2000/svg">
<path fill-rule="evenodd" clip-rule="evenodd" d="M132.304 75.6031L2.08353 150.954V544.112C2.08353 764.319 3.67949 937.263 5.70886 937.263C7.70488 937.263 31.6113 924.321 58.8388 908.5L108.343 879.733L109.518 547.037L110.698 214.334L159.982 186.209C187.084 170.742 210.474 158.083 211.953 158.083C213.436 158.083 214.166 333.569 213.582 548.054L212.52 938.021L168.766 963.372C144.701 977.318 96.884 1004.89 62.5058 1024.64L0 1060.55V1093.55V1126.55L127.095 1199.65C196.997 1239.85 269.192 1281.55 287.527 1292.33L320.863 1311.92L321.955 1156.38L323.047 1000.84L401.129 955.813C444.075 931.051 498.9 899.171 522.965 884.971C547.03 870.766 568.124 859.958 569.845 860.95C571.565 861.941 572.97 996.547 572.97 1160.07V1457.39L600.343 1472.7L627.721 1488L705.561 1443.14C748.378 1418.46 808.233 1384.07 838.574 1366.73L893.741 1335.19L893.787 940.009L893.833 544.833L867.789 559.875C853.467 568.15 829.127 581.912 813.709 590.462L785.673 606.009L784.539 939.038L783.406 1272.07L735.485 1300.26C709.128 1315.77 686.159 1328.57 684.438 1328.7C682.718 1328.83 681.38 1153.15 681.459 938.305L681.601 547.674L789.802 485.715L898 423.76L897.908 391.962L897.817 360.17L819.776 315.281C776.855 290.594 704.395 248.868 658.757 222.559C613.119 196.247 575.187 175.309 574.466 176.03C573.745 176.755 573.028 246.71 572.87 331.49L572.586 485.636L448.808 556.774L325.03 627.913L323.959 328.698L322.892 29.486L298.415 14.6149C284.951 6.4398 271.367 -0.139423 268.229 0.00224569C265.091 0.139748 203.927 34.1611 132.304 75.6031ZM726.259 389.253C730.489 393.078 726.98 396.674 709.633 406.304C697.544 413.012 686.222 419.131 684.48 419.893C682.738 420.66 681.313 407.92 681.313 391.591V361.903L701.107 373.157C711.991 379.345 723.313 386.591 726.259 389.253ZM572.97 671.697V731.135L553.176 741.931C542.292 747.873 486.037 780.103 428.165 813.557L322.947 874.383V815.182V755.986L405.246 708.485C450.508 682.36 506.259 650.022 529.132 636.621C552.005 623.221 571.224 612.259 571.845 612.259C572.461 612.259 572.97 639.005 572.97 671.697ZM214.603 1093.52C214.603 1108.41 213.636 1120.6 212.457 1120.6C209.511 1120.6 164.599 1095.13 164.599 1093.46C164.599 1091.47 207.832 1066.63 211.478 1066.52C213.199 1066.47 214.603 1078.62 214.603 1093.52Z" fill="white"/>
</svg>
