<svg width="558" height="924" viewBox="0 0 558 924" fill="none" xmlns="http://www.w3.org/2000/svg">
<path fill-rule="evenodd" clip-rule="evenodd" d="M82.2111 46.9471L1.29466 93.7377V337.876C1.29466 474.617 2.28636 582.01 3.54738 582.01C4.78767 582.01 19.6426 573.974 36.5613 564.149L67.3225 546.286L68.0527 339.692L68.7855 133.095L99.4094 115.63C116.25 106.025 130.784 98.1647 131.704 98.1647C132.625 98.1647 133.078 207.136 132.716 340.324L132.056 582.481L104.868 598.223C89.9144 606.883 60.2019 624.004 38.8399 636.268L0 658.569V679.061V699.553L78.9745 744.941C122.41 769.905 167.271 795.802 178.664 802.493L199.378 814.659L200.057 718.074L200.735 621.489L249.254 593.529C275.939 578.152 310.007 558.356 324.961 549.538C339.914 540.718 353.021 534.006 354.09 534.622C355.16 535.238 356.032 618.824 356.032 720.366V904.99L373.042 914.496L390.054 924L438.422 896.141C465.028 880.816 502.221 859.465 521.074 848.694L555.354 829.107L555.382 583.715L555.411 338.323L539.227 347.664C530.328 352.803 515.204 361.349 505.623 366.658L488.202 376.312L487.498 583.112L486.793 789.913L457.016 807.422C440.639 817.052 426.366 824.998 425.297 825.078C424.228 825.159 423.396 716.071 423.446 582.657L423.534 340.088L490.768 301.613L558 263.141L557.943 243.396L557.886 223.654L509.393 195.78C482.723 180.449 437.697 154.539 409.339 138.202C380.981 121.863 357.41 108.861 356.962 109.309C356.514 109.759 356.069 153.199 355.97 205.845L355.794 301.564L278.881 345.739L201.968 389.914L201.302 204.111L200.639 18.3098L185.429 9.07539C177.063 3.99891 168.622 -0.0865771 166.672 0.0013945C164.723 0.0867789 126.716 21.2129 82.2111 46.9471ZM451.283 241.714C453.912 244.089 451.731 246.322 440.952 252.301C433.44 256.467 426.405 260.267 425.323 260.74C424.241 261.216 423.355 253.305 423.355 243.165V224.73L435.654 231.719C442.418 235.561 449.453 240.06 451.283 241.714ZM356.032 417.102V454.011L343.733 460.715C336.97 464.405 302.014 484.419 266.053 505.193L200.673 542.964V506.202V469.443L251.812 439.946C279.937 423.723 314.58 403.642 328.793 395.321C343.006 387 354.948 380.193 355.333 380.193C355.717 380.193 356.032 396.801 356.032 417.102ZM133.35 679.038C133.35 688.288 132.75 695.856 132.017 695.856C130.186 695.856 102.278 680.042 102.278 679.004C102.278 677.77 129.143 662.344 131.408 662.277C132.478 662.246 133.35 669.788 133.35 679.038Z" fill="#CB53F5"/>
</svg>
